<svg xmlns="http://www.w3.org/2000/svg" width="23.508" height="23.512" viewBox="0 0 23.508 23.512"><defs><style>.a{fill:#ffffff;}</style></defs><path class="a" d="M23.9,6.913A8.591,8.591,0,0,0,23.35,4.06,6.023,6.023,0,0,0,19.91.62,8.614,8.614,0,0,0,17.058.074C15.8.014,15.4,0,12.207,0S8.615.014,7.361.069A8.594,8.594,0,0,0,4.509.615a5.737,5.737,0,0,0-2.085,1.36A5.789,5.789,0,0,0,1.069,4.056,8.615,8.615,0,0,0,.522,6.908C.462,8.167.449,8.566.449,11.759S.462,15.35.517,16.6a8.591,8.591,0,0,0,.547,2.852A6.022,6.022,0,0,0,4.5,22.9a8.615,8.615,0,0,0,2.852.547c1.254.055,1.654.069,4.846.069s3.592-.014,4.846-.069A8.589,8.589,0,0,0,19.9,22.9a6.014,6.014,0,0,0,3.44-3.44,8.62,8.62,0,0,0,.547-2.852c.055-1.254.069-1.654.069-4.846s0-3.592-.06-4.846Zm-2.117,9.6a6.445,6.445,0,0,1-.4,2.182,3.9,3.9,0,0,1-2.232,2.232,6.467,6.467,0,0,1-2.182.4c-1.24.055-1.612.069-4.749.069s-3.514-.014-4.749-.069a6.441,6.441,0,0,1-2.182-.4,3.618,3.618,0,0,1-1.35-.877,3.656,3.656,0,0,1-.877-1.35,6.468,6.468,0,0,1-.4-2.182c-.055-1.24-.069-1.612-.069-4.749s.014-3.514.069-4.749a6.441,6.441,0,0,1,.4-2.182,3.574,3.574,0,0,1,.882-1.351,3.65,3.65,0,0,1,1.35-.877,6.472,6.472,0,0,1,2.182-.4c1.24-.055,1.612-.069,4.749-.069s3.514.014,4.749.069a6.445,6.445,0,0,1,2.182.4,3.615,3.615,0,0,1,1.35.877,3.655,3.655,0,0,1,.877,1.351,6.471,6.471,0,0,1,.4,2.182c.055,1.24.069,1.612.069,4.749s-.014,3.5-.069,4.745Zm0,0" transform="translate(-0.449 0)"/><path class="a" d="M130.989,124.5a6.04,6.04,0,1,0,6.04,6.04A6.042,6.042,0,0,0,130.989,124.5Zm0,9.958a3.918,3.918,0,1,1,3.918-3.918,3.919,3.919,0,0,1-3.918,3.918Zm0,0" transform="translate(-119.23 -118.781)"/><path class="a" d="M365.27,90.012a1.41,1.41,0,1,1-1.41-1.41,1.41,1.41,0,0,1,1.41,1.41Zm0,0" transform="translate(-345.822 -84.532)"/></svg>